<svg width="64" height="28" viewBox="0 0 64 28" fill="none" xmlns="http://www.w3.org/2000/svg">
<path d="M21.4999 0.566406V6.69443H12.3494L18.3943 0.566406H21.4999Z" fill="#3C3C3C"/>
<path d="M18.3941 0.566406L12.3491 6.69443H9.26434L3.16748 0.566406H18.3941Z" fill="#4B4B4B"/>
<path d="M21.4999 20.9453V26.9279H18.3944L12.3806 20.9453H21.4999Z" fill="#1E1E1E"/>
<path d="M18.3942 26.9279H3.29224L9.26446 20.9453H12.3804L18.3942 26.9279Z" fill="#0F0F0F"/>
<path d="M9.26456 20.9453L3.29234 26.9279H0.0517578V20.9453H9.26456Z" fill="#1E1E1E"/>
<path d="M9.26456 6.69443H0.0517578V0.566406H3.1677L9.26456 6.69443Z" fill="#3C3C3C"/>
<path d="M9.25398 6.69434H3.14673V20.9446H9.25398V6.69434Z" fill="#2D2D2D"/>
<path d="M3.29275 26.9277L3.27197 26.9485" stroke="black" stroke-miterlimit="10"/>
<path d="M18.3943 6.69434V20.9446H12.3805L12.3494 6.69434H18.3943Z" fill="#2D2D2D"/>
<path d="M30.1212 5.81158V11.0983L24.0867 16.1981V0.566406L30.1212 5.81158Z" fill="#3C3C3C"/>
<path d="M38.9913 0.566406L36.4258 5.81158H30.1212L24.0867 0.566406H38.9913Z" fill="#4B4B4B"/>
<path d="M42.5845 4.11858L36.4253 5.81158L38.9908 0.566406L42.5845 4.11858Z" fill="#FF8100"/>
<path d="M42.5845 4.11865V12.7706L36.4253 11.0984V5.81165L42.5845 4.11865Z" fill="#3C3C3C"/>
<path d="M38.9497 16.1974H24.0867L30.1212 11.0977H36.4258L38.9497 16.1974Z" fill="#1E1E1E"/>
<path d="M30.1212 16.1978H24.0867V26.927H30.1212V16.1978Z" fill="#0F0F0F"/>
<path d="M42.5845 12.7699L38.9492 16.1974L36.4253 11.0977L42.5845 12.7699Z" fill="#2D2D2D"/>
<path d="M43.8518 26.9478L36.8202 26.927L31.897 16.1978H38.9494L43.8518 26.9478Z" fill="#0F0F0F"/>
<path d="M62.6721 0.566406L57.4373 5.81158H51.3924L46.168 0.566406H62.6721Z" fill="#4B4B4B"/>
<path d="M51.3915 5.81158H45.1284V0.566406H46.1671L51.3915 5.81158Z" fill="#3C3C3C"/>
<path d="M63.6481 0.566406V5.81158H57.437L62.6718 0.566406H63.6481Z" fill="#FF8100"/>
<path d="M57.4375 5.81201H51.3926V27.0004H57.4375V5.81201Z" fill="#2D2D2D"/>
</svg>
