<svg width="712" height="776" viewBox="0 0 712 776" fill="none" xmlns="http://www.w3.org/2000/svg">
<g clip-path="url(#clip0_29_721)">
<path d="M392.25 773.963L301.514 636.47L506.823 500.982L461.929 727.981L392.25 773.963Z" stroke="#DC710E" stroke-opacity="0.7" stroke-miterlimit="10"/>
<path d="M90.5163 316.739L1.93401 182.508L71.613 136.525L295.125 181.712L90.5163 316.739Z" stroke="#DC710E" stroke-opacity="0.7" stroke-miterlimit="10"/>
<path d="M365.038 135.576L410.453 -87.084L483.162 -135.066L571.744 -0.834961L365.038 135.576Z" stroke="#DC710E" stroke-opacity="0.7" stroke-miterlimit="10"/>
<path d="M576.036 455.306L782.742 318.896L873.478 456.39L803.566 502.526L576.036 455.306Z" stroke="#DC710E" stroke-opacity="0.7" stroke-miterlimit="10"/>
<path d="M576.269 455.153L713.296 364.725L502.298 44.9941L365.271 135.422L576.269 455.153Z" stroke="#DC710E" stroke-opacity="0.7" stroke-miterlimit="10"/>
<path d="M371.193 590.487L160.195 270.756L295.126 181.712L506.823 500.982L371.193 590.487Z" stroke="#DC710E" stroke-opacity="0.7" stroke-miterlimit="10"/>
</g>
<defs>
<clipPath id="clip0_29_721">
<rect width="579.362" height="711.429" fill="white" transform="translate(875.412 456.786) rotate(146.578)"/>
</clipPath>
</defs>
</svg>
